<?xml version="1.0" encoding="utf-8"?><!DOCTYPE svg PUBLIC "-//W3C//DTD SVG 1.1//EN" "http://www.w3.org/Graphics/SVG/1.1/DTD/svg11.dtd"[]><svg version="1.1" xmlns="http://www.w3.org/2000/svg" xmlns:xlink="http://www.w3.org/1999/xlink" width="20px" height="20px" viewBox="0 0 20 20" xml:space="preserve" enable-background="new 0 0 20 20">
<g color-interpolation="linearRGB" transform="scale(0.75,0.75)">
<g transform="matrix(1.2063492 0 0 -1.2063492 0.66666667 26)">
<path d="M6.1 13.7 L6.5 11 C7 11.3 7.6 11.4 8.2 11.4 L9.4 14.8 L6.1 13.7 Z M5.4 8.4 C4.8 7.7 4.4 6.8 4.4 5.8 C4.4 3.5 6.2 1.7 8.5 1.7 C10.8 1.7 12.6 3.5 12.6 5.8 C12.6 8.1 10.8 9.9 8.5 9.9 C7.9 9.9 7.2 9.7 6.7 9.5 L6.9 8.5 C7 8.2 6.7 7.8 6.4 7.8 L6.2 7.8 C5.9 7.7 5.5 8 5.5 8.3 L5.4 8.4 Z M18 10.3 L16.7 3.4 C16.6 3.1 16.4 2.8 16 2.9 L15.9 3 C15.6 3.1 15.4 3.5 15.5 3.8 L16.8 10.2 L12.1 10.2 C13.4 9.2 14.2 7.6 14.2 5.8 C14.2 2.7 11.7 0.1 8.5 0.1 C5.3 0.1 2.8 2.6 2.8 5.8 C2.8 7.6 3.7 9.3 5 10.3 L4.4 14.3 C4.5 14.8 5.1 15 5.1 15 C5.1 15 10.3 16.7 10.3 16.7 C10.3 16.7 10.5 16.7 10.6 16.7 L12.5 16.2 C12.9 16 13.1 15.6 12.9 15.2 L11.7 11.4 L17.5 11.4 C17.8 11.4 18.1 11.1 18.1 10.8 C18.1 10.8 18.1 10.4 18 10.3 Z M11.1 19 C11.1 20 11.9 20.9 13 20.9 C14.1 20.9 14.9 20.1 14.9 19 C14.9 18 14.1 17.1 13 17.1 C11.9 17.1 11.1 18 11.1 19 Z " stroke="none" fill="#FFFFFF" fill-rule="evenodd" fill-opacity="1" />
</g>
</g>
</svg>