<?xml version="1.0" encoding="utf-8"?><svg version="1.1" xmlns="http://www.w3.org/2000/svg" xmlns:xlink="http://www.w3.org/1999/xlink" width="20px" height="20px" viewBox="0 0 20 20" xml:space="preserve" enable-background="new 0 0 20 20">
<g color-interpolation="linearRGB" transform="scale(0.75,0.75)">
<g transform="matrix(1.2063492 0 0 -1.2063492 0.66666667 26)">
<path d="M20.3 17.6 L11.1 15.3 L11.1 11.6 L16.3 11.6 L17.8 6.7 C18 6.2 18 5.6 17.8 5.1 L16.3 0.1 L4.7 0.1 L3.2 5.1 C3 5.6 3 6.2 3.2 6.7 L4.7 11.6 L9.9 11.6 L9.9 15.1 L0.7 12.8 L0.7 13.7 L11.1 16.3 L20.3 18.6 L20.3 17.6 Z M8.8 4.7 L8.8 9.3 L6.5 9.3 L5.3 4.7 L8.8 4.7 Z M15.7 4.7 L14.5 9.3 L9.9 9.3 L9.9 4.7 L15.7 4.7 Z M9.9 18 C9.9 19 9.1 19.7 8.2 19.7 C7.3 19.7 6.5 18.9 6.5 18 C6.5 17.1 7.3 16.3 8.2 16.3 C9.1 16.3 9.9 17 9.9 18 Z M14.5 19.2 C14.5 20.1 13.7 20.9 12.8 20.9 C11.9 20.9 11.1 20.1 11.1 19.2 C11.1 18.3 11.9 17.5 12.8 17.5 C13.7 17.5 14.5 18.2 14.5 19.2 Z " stroke="none"  fill-rule="evenodd" fill-opacity="1" />
</g>
</g>
</svg>