<?xml version="1.0" encoding="utf-8"?><svg version="1.1" xmlns="http://www.w3.org/2000/svg" xmlns:xlink="http://www.w3.org/1999/xlink" width="20px" height="20px" viewBox="0 0 20 20" xml:space="preserve" enable-background="new 0 0 20 20">
<g color-interpolation="linearRGB" transform="scale(0.75,0.75)">
<g transform="matrix(1.2063492 0 0 -1.2063492 0.66666667 26)">
<path d="M12.1 9.1 C12.6 9.6 12.9 10.2 12.9 10.8 C12.9 12.1 11.8 13.2 10.5 13.2 C9.2 13.2 8.1 12.1 8.1 10.8 C8.1 10.1 8.4 9.5 8.9 9.1 L3.4 0.1 L5.5 0.1 L5.6 0.2 L10.5 8.2 L15.4 0.2 L15.5 0.1 L17.6 0.1 L12.1 9.1 Z M10.5 2.1 C11.2 2.1 11.9 2.2 12.5 2.4 L13.2 1.3 C12.4 1 11.5 0.9 10.5 0.9 C9.6 0.9 8.7 1.1 7.8 1.3 L8.5 2.4 C9.1 2.2 9.8 2.1 10.5 2.1 Z M20.5 11.2 C20.5 11.2 20.5 11.2 20.5 11.2 C20.5 11 20.5 10.9 20.5 10.9 C20.5 8.2 19.5 5.8 17.8 4 C17.7 4 17.7 3.9 17.7 3.9 C17.7 3.9 17.7 3.9 17.7 3.9 C17.5 3.7 17.3 3.6 17.1 3.4 L15 6.9 C15.8 7.6 16.9 7.6 17.7 6.8 C17.8 6.7 17.9 6.5 18 6.4 C18.5 7.3 18.9 8.3 19.1 9.3 C18.9 9.2 18.7 9.2 18.5 9.2 C17.4 9.2 16.5 10.1 16.5 11.2 C16.5 12.3 17.4 13.2 18.5 13.2 C18.6 13.2 18.8 13.2 18.9 13.2 C18.6 14.1 18.2 15 17.7 15.8 C17.6 15.6 17.5 15.4 17.4 15.3 C16.7 14.5 15.4 14.5 14.6 15.3 C13.8 16 13.8 17.3 14.6 18.1 C14.7 18.2 14.9 18.3 15 18.4 C14.2 18.8 13.3 19.2 12.4 19.4 C12.5 19.2 12.5 19.1 12.5 18.9 C12.5 17.8 11.6 16.9 10.5 16.9 C9.4 16.9 8.5 17.8 8.5 18.9 C8.5 19.1 8.6 19.2 8.6 19.4 C7.7 19.2 6.9 18.9 6.1 18.4 C6.2 18.3 6.3 18.3 6.3 18.1 C7.1 17.4 7 16.1 6.3 15.3 C5.6 14.5 4.3 14.5 3.5 15.3 C3.4 15.5 3.3 15.6 3.2 15.8 C2.7 15 2.3 14.1 2 13.1 C2.1 13.1 2.3 13.1 2.4 13.1 C3.5 13.1 4.4 12.2 4.4 11.1 C4.4 10 3.5 9.1 2.4 9.1 C2.2 9.1 2 9.1 1.8 9.2 C2 8.1 2.4 7.2 2.9 6.3 C3 6.5 3.1 6.6 3.2 6.7 C4 7.5 5.2 7.5 6 6.8 L3.9 3.4 C3.7 3.6 3.5 3.8 3.3 4 C3.3 4 3.3 4 3.3 4 C3.3 4 3.2 4.1 3.2 4.1 C1.5 5.9 0.5 8.3 0.5 10.9 C0.5 11 0.5 11 0.5 11.1 C0.5 11.1 0.5 11.2 0.5 11.2 C0.5 11.3 0.5 11.4 0.5 11.5 C0.7 14.1 1.8 16.4 3.6 18.1 C3.6 18.1 3.6 18.1 3.6 18.1 C3.6 18.1 3.7 18.2 3.7 18.2 C5.5 19.9 7.9 20.9 10.5 20.9 C13.2 20.9 15.6 19.9 17.4 18.2 C17.4 18.2 17.5 18.1 17.5 18.1 C17.5 18.1 17.5 18.1 17.5 18.1 C19.2 16.4 20.4 14.1 20.5 11.5 C20.5 11.4 20.5 11.3 20.5 11.2 Z " stroke="none"  fill-rule="evenodd" fill-opacity="1" />
</g>
</g>
</svg>