<?xml version="1.0" encoding="utf-8"?><svg version="1.1" xmlns="http://www.w3.org/2000/svg" xmlns:xlink="http://www.w3.org/1999/xlink" width="20px" height="20px" viewBox="0 0 20 20" xml:space="preserve" enable-background="new 0 0 20 20">
<g color-interpolation="linearRGB" transform="scale(0.75,0.75)">
<g transform="matrix(1.2063492 0 0 -1.2063492 0.66666667 26)">
<path d="M18.5 11.1 L19.6 10.5 L18.4 8.7 C18.4 8.7 15.3 3.8 12.9 1.4 L14.7 6.3 C14.7 6.3 8.6 1.4 3.7 0.2 C3.7 0.2 8.6 3.9 8.6 6.3 C8.6 8.7 7.4 8.7 7.4 8.7 L1.3 6.3 L1.3 13.6 L7.5 11.1 C7.5 11.1 8.7 13.1 8.7 14.8 C8.7 17.2 6.3 20.9 6.3 20.9 C6.3 20.9 14.8 17.1 18.5 11.1 Z M16 10.9 L16 11.4 C16 12 15.5 12.4 15 12.4 L14.5 12.4 C13.9 12.4 13.5 11.9 13.5 11.4 L13.5 10.9 C13.5 10.3 14 9.9 14.5 9.9 L15 9.9 C15.6 9.9 16 10.4 16 10.9 Z " stroke="none"  fill-rule="evenodd" fill-opacity="1" />
</g>
</g>
</svg>