<?xml version="1.0" encoding="utf-8"?><!DOCTYPE svg PUBLIC "-//W3C//DTD SVG 1.1//EN" "http://www.w3.org/Graphics/SVG/1.1/DTD/svg11.dtd"[]><svg version="1.1" xmlns="http://www.w3.org/2000/svg" xmlns:xlink="http://www.w3.org/1999/xlink" width="20px" height="20px" viewBox="0 0 20 20" xml:space="preserve" enable-background="new 0 0 20 20">
<g color-interpolation="linearRGB" transform="scale(0.75,0.75)">
<g transform="matrix(1.2063492 0 0 -1.2063492 0.66666667 26)">
<path d="M11.1 7.4 L11.1 1.3 L13.5 1.3 L13.5 0.1 L7.4 0.1 L7.4 1.3 L9.9 1.3 L9.9 7.4 L2.6 17.2 L12.6 17.2 L15 20.9 L16 20.9 L13.5 17.2 L18.4 17.2 L11.1 7.4 Z M16 16 L12.7 16 L11.1 13.6 L14.2 13.6 L16 16 Z M11.8 16 L5 16 L6.8 13.6 L10.2 13.6 L11.8 16 Z " stroke="none" fill="#FFFFFF" fill-rule="evenodd" fill-opacity="1" />
</g>
</g>
</svg>