<?xml version="1.0" encoding="utf-8"?><!DOCTYPE svg PUBLIC "-//W3C//DTD SVG 1.1//EN" "http://www.w3.org/Graphics/SVG/1.1/DTD/svg11.dtd"[]><svg version="1.1" xmlns="http://www.w3.org/2000/svg" xmlns:xlink="http://www.w3.org/1999/xlink" width="20px" height="20px" viewBox="0 0 20 20" xml:space="preserve" enable-background="new 0 0 20 20">
<g color-interpolation="linearRGB" transform="scale(0.75,0.75)">
<g transform="matrix(1.2063492 0 0 -1.2063492 0.66666667 26)">
<path d="M17.9 5.5 C17.9 5.6 17.8 5.6 17.7 5.5 C17.4 4.2 16.2 3.2 14.7 3.2 C13.2 3.2 12.1 4.2 11.7 5.5 C11.7 5.6 11.6 5.6 11.5 5.5 C11.2 4.2 10 3.2 8.5 3.2 C7 3.2 5.9 4.2 5.5 5.5 C5.5 5.6 5.4 5.6 5.3 5.5 C5 4.2 3.8 3.2 2.3 3.2 C1.3 3.2 0.4 3.7 -0.1 4.4 L-0.1 2 C0.5 1.3 1.3 0.8 2.3 0.8 C3.7 0.8 4.9 1.8 5.3 3.1 C5.3 3.2 5.4 3.2 5.5 3.1 C5.8 1.8 7 0.8 8.5 0.8 C10 0.8 11.1 1.8 11.5 3.1 C11.5 3.2 11.6 3.2 11.7 3.1 C12 1.8 13.2 0.8 14.7 0.8 C16.2 0.8 17.3 1.8 17.7 3.1 C17.7 3.2 17.8 3.2 17.9 3.1 C18.2 1.8 19.4 0.8 20.9 0.8 L20.9 3.2 C19.5 3.2 18.3 4.2 17.9 5.5 Z M20.1 8.1 L14.8 13.4 L7 5.5 C6.9 5.7 6.9 6 6.9 6.2 C6.9 6.4 6.8 6.7 6.7 6.9 L14 14.2 L8.7 19.5 C9.8 20 11 20.3 12.3 20.3 C17 20.3 20.9 16.5 20.9 11.7 C20.9 10.4 20.6 9.2 20.1 8.1 Z " stroke="none" fill="#FFFFFF" fill-rule="evenodd" fill-opacity="1" />
</g>
</g>
</svg>