<?xml version="1.0" encoding="utf-8"?><!DOCTYPE svg PUBLIC "-//W3C//DTD SVG 1.1//EN" "http://www.w3.org/Graphics/SVG/1.1/DTD/svg11.dtd"[]><svg version="1.1" xmlns="http://www.w3.org/2000/svg" xmlns:xlink="http://www.w3.org/1999/xlink" width="20px" height="20px" viewBox="0 0 20 20" xml:space="preserve" enable-background="new 0 0 20 20">
<g color-interpolation="linearRGB" transform="scale(0.75,0.75)">
<g transform="matrix(1.4901961 0 0 -1.4901961 0.66666667 26)">
<path d="M8.5 17 C12.94 17 17 16.86 17 13.91 L17 1.55 L15.45 1.55 L15.45 0 L12.36 0 L12.36 1.55 L4.64 1.55 L4.64 0 L1.55 0 L1.55 1.55 L0 1.55 L0 13.91 C0 16.86 4.06 17 8.5 17 Z M4.64 15.46 L4.64 13.91 L12.36 13.91 L12.36 15.46 L4.64 15.46 Z M4.64 3.87 L4.64 5.41 C4.64 5.84 4.29 6.18 3.86 6.18 L2.32 6.18 C1.89 6.18 1.55 5.84 1.55 5.41 L1.55 3.87 C1.55 3.44 1.89 3.09 2.32 3.09 L3.86 3.09 C4.29 3.09 4.64 3.44 4.64 3.87 Z M15.45 3.87 L15.45 5.41 C15.45 5.84 15.11 6.18 14.68 6.18 L13.14 6.18 C12.71 6.18 12.36 5.84 12.36 5.41 L12.36 3.87 C12.36 3.44 12.71 3.09 13.14 3.09 L14.68 3.09 C15.11 3.09 15.45 3.44 15.45 3.87 Z M15.45 7.73 L15.45 12.37 L1.55 12.37 L1.55 7.73 L15.45 7.73 Z " stroke="none" fill="#FFFFFF" fill-rule="evenodd" fill-opacity="1" />
</g>
</g>
</svg>