<?xml version="1.0" encoding="utf-8"?><svg version="1.1" xmlns="http://www.w3.org/2000/svg" xmlns:xlink="http://www.w3.org/1999/xlink" width="20px" height="20px" viewBox="0 0 20 20" xml:space="preserve" enable-background="new 0 0 20 20">
<g color-interpolation="linearRGB" transform="scale(0.75,0.75)">
<g transform="matrix(1.2063492 0 0 -1.2063492 0.66666667 26)">
<path d="M16 19.8 L18.5 17.9 L15.4 16.1 L14.2 17.9 L13 16.1 L11.7 17.8 L10.5 16 L9.1 16 C8.5 15.3 7.7 14.9 6.8 14.9 C5.1 14.9 3.8 16.3 3.8 17.9 C3.8 19.6 5.2 20.9 6.8 20.9 C7.7 20.9 8.6 20.5 9.1 19.8 L16 19.8 Z M6.2 17.3 L6.2 18.6 L5 18.6 L5 17.3 L6.2 17.3 Z M17.3 8.7 L18.5 8.7 L18.5 5 L18.5 2.5 L18.5 0 L14.8 0 L14.8 2.5 L6.2 2.5 L6.2 0 L2.5 0 L2.5 2.5 L2.5 5 L2.5 8.7 L3.8 8.7 L5 13.6 L16 13.6 L17.3 8.7 Z M6.2 12.4 L5.3 8.7 L15.7 8.7 L14.8 12.4 L6.2 12.4 Z M5.6 3.8 C6.6 3.8 7.4 4.6 7.4 5.6 C7.4 6.6 6.6 7.4 5.6 7.4 C4.6 7.4 3.8 6.6 3.8 5.6 C3.8 4.6 4.6 3.8 5.6 3.8 Z M15.4 3.8 C16.4 3.8 17.2 4.6 17.2 5.6 C17.2 6.6 16.4 7.4 15.4 7.4 C14.4 7.4 13.6 6.6 13.6 5.6 C13.6 4.6 14.4 3.8 15.4 3.8 Z " stroke="none"  fill-rule="evenodd" fill-opacity="1" />
</g>
</g>
</svg>