<?xml version="1.0" encoding="utf-8"?><!DOCTYPE svg PUBLIC "-//W3C//DTD SVG 1.1//EN" "http://www.w3.org/Graphics/SVG/1.1/DTD/svg11.dtd"[]><svg version="1.1" xmlns="http://www.w3.org/2000/svg" xmlns:xlink="http://www.w3.org/1999/xlink" width="20px" height="20px" viewBox="0 0 20 20" xml:space="preserve" enable-background="new 0 0 20 20">
<g color-interpolation="linearRGB" transform="scale(0.75,0.75)">
<g transform="matrix(1.2063492 0 0 -1.2063492 0.66666667 26)">
<path d="M9.9 12.8 L20.3 16.3 L20.3 4.7 L9.9 0.1 L9.9 12.8 Z M17.4 10.5 C18.4 10.5 19.1 11.4 19.1 12.3 C19.1 13.2 18.4 14 17.4 14 C16.5 14 15.7 13.1 15.7 12.2 C15.7 11.3 16.4 10.5 17.4 10.5 Z M15.1 7 C16.1 7 16.8 7.8 16.8 8.7 C16.8 9.6 16 10.4 15.1 10.4 C14.2 10.4 13.4 9.6 13.4 8.7 C13.4 7.8 14.1 7 15.1 7 Z M11.1 5.3 C11.1 4.3 11.9 3.6 12.8 3.6 C13.7 3.6 14.5 4.4 14.5 5.3 C14.5 6.2 13.7 7 12.8 7 C11.9 7 11.1 6.3 11.1 5.3 Z M0.7 16.3 L8.8 12.8 L8.8 0.1 L0.7 4.7 L0.7 16.3 Z M4.1 5.3 C4.1 4.3 4.9 3.6 5.8 3.6 C6.7 3.6 7.5 4.4 7.5 5.3 C7.5 6.2 6.7 7 5.8 7 C4.9 7 4.1 6.3 4.1 5.3 Z M1.8 11.1 C1.8 10.1 2.7 9.4 3.6 9.4 C4.5 9.4 5.3 10.2 5.3 11.1 C5.3 12 4.4 12.8 3.5 12.8 C2.6 12.8 1.8 12.1 1.8 11.1 Z M0.7 17.4 L9.3 21 L20.3 17.5 L9.3 14 L0.7 17.4 Z M7.6 18 C7.6 17.1 8.5 16.3 9.4 16.3 C10.3 16.3 11.1 17 11.1 18 C11.1 19 10.2 19.7 9.3 19.7 C8.4 19.7 7.6 19 7.6 18 Z " stroke="none" fill="#FFFFFF" fill-rule="evenodd" fill-opacity="1" />
</g>
</g>
</svg>