<?xml version="1.0" encoding="utf-8"?><!DOCTYPE svg PUBLIC "-//W3C//DTD SVG 1.1//EN" "http://www.w3.org/Graphics/SVG/1.1/DTD/svg11.dtd"[]><svg version="1.1" xmlns="http://www.w3.org/2000/svg" xmlns:xlink="http://www.w3.org/1999/xlink" width="20px" height="20px" viewBox="0 0 20 20" xml:space="preserve" enable-background="new 0 0 20 20">
<g color-interpolation="linearRGB" transform="scale(0.75,0.75)">
<g transform="matrix(1.2063492 0 0 -1.2063492 0.66666667 26)">
<path d="M16.4 4 L4.6 4 L4.6 18.3 C4.6 18.3 7.2 20.8 10.6 20.9 C10.6 20.9 10.7 20.9 10.7 20.9 C10.7 20.9 10.8 20.9 10.8 20.9 C14.1 20.8 16.4 18.3 16.4 18.3 L16.4 4 Z M7.3 15.7 L7.3 14.4 L13.8 14.4 L13.8 15.7 L7.3 15.7 Z M7.3 13.1 L7.3 11.8 L13.8 11.8 L13.8 13.1 L7.3 13.1 Z M20.3 1.4 L19 2.7 L2 2.7 L0.7 1.4 L0.7 0.1 L20.3 0.1 L20.3 1.4 Z " stroke="none" fill="#FFFFFF" fill-rule="evenodd" fill-opacity="1" />
</g>
</g>
</svg>