<?xml version="1.0" encoding="utf-8"?><svg version="1.1" xmlns="http://www.w3.org/2000/svg" xmlns:xlink="http://www.w3.org/1999/xlink" width="20px" height="20px" viewBox="0 0 20 20" xml:space="preserve" enable-background="new 0 0 20 20">
<g color-interpolation="linearRGB" transform="scale(0.75,0.75)">
<g transform="matrix(1.4901961 0 0 -1.4901961 0.66666667 26)">
<path d="M14.38 0 L1.31 0 L0 1.31 L15.69 1.31 L14.38 0 Z M17 11.77 L17 7.85 C17 6.4 15.83 5.23 14.38 5.23 L13.08 5.23 L13.08 3.27 C13.08 2.91 12.78 2.62 12.42 2.62 L3.27 2.62 C2.91 2.62 2.62 2.91 2.62 3.27 L2.62 14.39 L13.08 14.39 L14.38 14.39 C15.83 14.39 17 13.22 17 11.77 Z M13.08 13.08 L13.08 6.54 L14.38 6.54 C15.11 6.54 15.69 7.13 15.69 7.85 L15.69 11.77 C15.69 12.49 15.11 13.08 14.38 13.08 L13.08 13.08 Z " stroke="none"  fill-rule="evenodd" fill-opacity="1" />
</g>
</g>
</svg>