<?xml version="1.0" encoding="utf-8"?><svg version="1.1" xmlns="http://www.w3.org/2000/svg" xmlns:xlink="http://www.w3.org/1999/xlink" width="20px" height="20px" viewBox="0 0 20 20" xml:space="preserve" enable-background="new 0 0 20 20">
<g color-interpolation="linearRGB" transform="scale(0.75,0.75)">
<g transform="matrix(1.2063492 0 0 -1.2063492 0.66666667 26)">
<path d="M8.3 14.2 L13.5 9 L17 12.5 L11.8 17.7 L8.3 14.2 Z M0.1 2.6 L9.1 11.6 L10.8 9.9 L1.8 0.9 L0.1 2.6 Z M6.1 14.7 L5.2 15.5 C5 15.8 5 16.2 5.2 16.4 L9.5 20.7 C9.8 21 10.2 21 10.4 20.8 L11.3 19.9 C11.5 19.6 11.5 19.2 11.3 19 L7 14.7 C6.7 14.5 6.3 14.5 6.1 14.7 Z M13.9 6.9 C13.6 7.1 13.6 7.5 13.9 7.8 L18.2 12.1 C18.5 12.3 18.9 12.3 19.1 12.1 L20 11.2 C20.2 10.9 20.2 10.5 20 10.3 L15.7 6 C15.4 5.8 15 5.8 14.8 6 L13.9 6.9 Z M19.7 2.5 L20.4 2.5 C20.7 2.5 21 2.2 21 1.9 L21 0.1 L11.2 0.1 L11.2 1.9 C11.2 2.2 11.5 2.5 11.8 2.5 L12.4 2.5 L12.4 3.1 C12.4 3.4 12.7 3.7 13 3.7 L19.1 3.7 C19.4 3.7 19.7 3.4 19.7 3.1 L19.7 2.5 Z " stroke="none"  fill-rule="evenodd" fill-opacity="1" />
</g>
</g>
</svg>