<?xml version="1.0" encoding="utf-8"?><!DOCTYPE svg PUBLIC "-//W3C//DTD SVG 1.1//EN" "http://www.w3.org/Graphics/SVG/1.1/DTD/svg11.dtd"[]><svg version="1.1" xmlns="http://www.w3.org/2000/svg" xmlns:xlink="http://www.w3.org/1999/xlink" width="20px" height="20px" viewBox="0 0 20 20" xml:space="preserve" enable-background="new 0 0 20 20">
<g color-interpolation="linearRGB" transform="scale(0.75,0.75)">
<g transform="matrix(1.2063492 0 0 -1.2063492 0.66666667 26)">
<path d="M18.5 7.4 L18.5 7.5 L16 7.5 L16 2.6 L17.3 2.6 L18.5 1.4 L18.5 0.2 L2.6 0.2 L2.6 1.4 L3.8 2.6 L5 2.6 L5 7.5 L2.6 7.5 L2.6 8.7 L9.9 13.2 L9.9 20.9 L11.2 20.9 L11.2 20.4 C11.2 20.4 11.5 20.9 12.7 20.9 C13.9 20.9 14.7 20 15.8 20 C16.9 20 17.3 20.4 17.3 20.4 L17.3 15.1 C17.3 15.1 17 14.7 15.8 14.7 C14.6 14.7 13.8 15.6 12.7 15.6 C11.6 15.6 11.2 15.1 11.2 15.1 L11.2 13.1 L18.5 8.6 L18.5 7.4 Z M7.4 2.5 L7.4 7.4 L6.2 7.4 L6.2 2.5 L7.4 2.5 Z M9.9 2.5 L9.9 2.5 L9.9 7.4 L8.7 7.4 L8.7 2.5 L9.9 2.5 Z M12.3 2.5 L12.3 7.4 L11.1 7.4 L11.1 2.5 L12.3 2.5 Z M14.8 2.5 L14.8 7.4 L13.6 7.4 L13.6 2.5 L14.8 2.5 Z " stroke="none" fill="#FFFFFF" fill-rule="evenodd" fill-opacity="1" />
</g>
</g>
</svg>