<?xml version="1.0" encoding="utf-8"?><svg version="1.1" xmlns="http://www.w3.org/2000/svg" xmlns:xlink="http://www.w3.org/1999/xlink" width="20px" height="20px" viewBox="0 0 20 20" xml:space="preserve" enable-background="new 0 0 20 20">
<g color-interpolation="linearRGB" transform="scale(0.75,0.75)">
<g transform="matrix(1.2063492 0 0 -1.2063492 0.66666667 26)">
<path d="M11.1 19.7 L11.1 20.9 L9.9 20.9 L9.9 19.7 L11.1 19.7 Z M10.5 15.9 L14.8 14 L13.9 17.2 L13 17.2 L12.6 19.7 L8.5 19.7 L8 17.3 L7.1 17.3 L6.2 14.1 L10.5 15.9 Z M9.1 17.2 L9.8 18.4 L11.1 18.4 L11.8 17.2 L9.1 17.2 Z M6.7 4.7 C6.1 4.7 5.6 4.6 5.1 4.5 C5 5.6 4.5 8.6 2.7 10.7 L10.5 14 L18.2 10.7 C16.4 8.6 15.9 5.6 15.8 4.5 C15.3 4.6 14.8 4.7 14.3 4.7 C13 4.7 11.7 4.3 10.5 3.5 C9.3 4.3 8 4.7 6.7 4.7 Z M14.3 2.5 C16.4 2.5 17.7 1.5 17.9 1.4 C18 1.3 18 1.2 17.9 1.1 L17.4 0.7 C17.3 0.6 17.3 0.6 17.2 0.6 C17.1 0.6 17 0.7 17 0.7 C17 0.7 16 1.5 14.5 1.5 C13.3 1.5 12.1 1 11 0.1 C10.9 0 10.8 0 10.6 0 C10.4 0 10.3 0 10.2 0.1 C10.2 0.1 10.2 0.1 10.2 0.1 C9 1 7.9 1.5 6.7 1.5 C5.3 1.5 4.3 0.8 4.2 0.7 C4.1 0.6 4.1 0.6 4 0.6 C3.9 0.6 3.8 0.7 3.8 0.7 L3.3 1.1 C3.2 1.2 3.2 1.3 3.3 1.4 C3.3 1.4 4.7 2.5 6.7 2.5 C8 2.5 9.3 2.1 10.5 1.2 C11.7 2.1 13 2.5 14.3 2.5 Z " stroke="none"  fill-rule="evenodd" fill-opacity="1" />
</g>
</g>
</svg>