<?xml version="1.0" encoding="utf-8"?><!DOCTYPE svg PUBLIC "-//W3C//DTD SVG 1.1//EN" "http://www.w3.org/Graphics/SVG/1.1/DTD/svg11.dtd"[]><svg version="1.1" xmlns="http://www.w3.org/2000/svg" xmlns:xlink="http://www.w3.org/1999/xlink" width="20px" height="20px" viewBox="0 0 20 20" xml:space="preserve" enable-background="new 0 0 20 20">
<g color-interpolation="linearRGB" transform="scale(0.75,0.75)">
<g transform="matrix(1.4901961 0 0 -1.4901961 0.66666667 26)">
<path d="M8.5 17 C8.5 17 10.88 14.31 15.69 14.38 C15.69 14.38 15.69 13.94 15.69 10.28 C15.69 6.61 15.25 2.39 8.5 0 C1.75 2.39 1.31 6.61 1.31 10.28 C1.31 13.94 1.31 14.38 1.31 14.38 C6.12 14.31 8.5 17 8.5 17 Z M12.03 9.32 C12.03 10.13 12.79 10.68 12.79 10.68 C12.79 10.68 11.05 10.28 10.78 9.02 C10.5 7.75 10.48 7.41 9.17 7.23 C7.87 7.05 7.51 8.14 8.57 9.25 C9.63 10.36 10.28 10.86 10.52 12.19 C10.77 13.52 9.37 14.39 9.37 14.39 C9.37 14.39 9.86 13.45 8.76 11.8 C7.9 10.5 6.18 9.98 5.37 8.64 C5.02 8.06 4.93 7.43 4.97 6.78 C5.29 5.16 6.77 3.92 8.57 3.92 C10.44 3.92 12.1 5.35 12.22 7.15 C12.27 7.87 12.04 8.59 12.03 9.32 Z " stroke="none" fill="#FFFFFF" fill-rule="evenodd" fill-opacity="1" />
</g>
</g>
</svg>