<?xml version="1.0" encoding="utf-8"?><!DOCTYPE svg PUBLIC "-//W3C//DTD SVG 1.1//EN" "http://www.w3.org/Graphics/SVG/1.1/DTD/svg11.dtd"[]><svg version="1.1" xmlns="http://www.w3.org/2000/svg" xmlns:xlink="http://www.w3.org/1999/xlink" width="20px" height="20px" viewBox="0 0 20 20" xml:space="preserve" enable-background="new 0 0 20 20">
<g color-interpolation="linearRGB" transform="scale(0.75,0.75)">
<g transform="matrix(1.2063492 0 0 -1.2063492 0.66666667 26)">
<path d="M13.4 18.8 C15.1 18.8 15.7 19.5 15.8 19.5 L15.8 10.4 C15.8 10.4 15.2 9.7 13.5 9.7 C11.8 9.7 10.6 11.1 8.9 11.1 C7.2 11.1 6.6 10.4 6.6 10.4 L6.6 0 L5.3 0 L5.3 20.8 L6.5 20.8 L6.5 19.5 C6.5 19.5 7.1 20.2 8.8 20.2 C10.5 20.2 11.7 18.8 13.4 18.8 Z " stroke="none" fill="#FFFFFF" fill-rule="evenodd" fill-opacity="1" />
</g>
</g>
</svg>