<?xml version="1.0" encoding="utf-8"?><svg version="1.1" xmlns="http://www.w3.org/2000/svg" xmlns:xlink="http://www.w3.org/1999/xlink" width="20px" height="20px" viewBox="0 0 20 20" xml:space="preserve" enable-background="new 0 0 20 20">
<g color-interpolation="linearRGB" transform="scale(0.75,0.75)">
<g transform="matrix(1.4901961 0 0 -1.4901961 0.66666667 26)">
<path d="M16.64 6.94 C16.7 6.7 16.73 6.44 16.73 6.18 C16.73 4.48 15.34 3.09 13.64 3.09 C13.07 3.09 12.55 3.26 12.09 3.52 L12.09 0 L1.27 0 L1.27 16.23 C1.27 16.66 1.62 17 2.05 17 L11.32 17 C11.75 17 12.09 16.66 12.09 16.23 L12.09 15.46 L12.86 15.46 C14.14 15.46 15.18 14.42 15.18 13.14 L15.18 12.18 C15.18 11.44 15.27 10.7 15.45 9.98 L16.64 6.94 Z M10.55 10.82 L10.55 15.46 L2.82 15.46 L2.82 10.82 L10.55 10.82 Z M13.64 4.64 C14.49 4.64 15.18 5.33 15.18 6.18 C15.18 6.32 15.17 6.44 15.13 6.56 L15.14 6.56 L15.13 6.57 L13.96 9.44 C13.74 10.26 13.64 11.11 13.64 11.96 L13.64 12.22 L12.09 12.22 L12.09 6.18 C12.09 5.33 12.78 4.64 13.64 4.64 Z " stroke="none"  fill-rule="evenodd" fill-opacity="1" />
</g>
</g>
</svg>