<?xml version="1.0" encoding="utf-8"?><!DOCTYPE svg PUBLIC "-//W3C//DTD SVG 1.1//EN" "http://www.w3.org/Graphics/SVG/1.1/DTD/svg11.dtd"[]><svg version="1.1" xmlns="http://www.w3.org/2000/svg" xmlns:xlink="http://www.w3.org/1999/xlink" width="20px" height="20px" viewBox="0 0 20 20" xml:space="preserve" enable-background="new 0 0 20 20">
<g color-interpolation="linearRGB" transform="scale(0.75,0.75)">
<g transform="matrix(1.2063492 0 0 -1.2063492 0.66666667 26)">
<path d="M16.6 6.8 C16.6 7.5 16.1 8 15.4 8 C14.7 8 14.2 7.5 14.2 6.8 C14.2 6.1 14.7 5.6 15.4 5.6 C16 5.6 16.6 6.1 16.6 6.8 Z M20.5 7.2 C18.6 4.9 17.8 2.9 14.5 1.1 C11.2 -0.7 8.7 0.5 6.1 2.6 C3.5 4.7 1.1 4.1 0.1 7.4 C-0.6 9.7 3.5 10.6 7.3 11 L7.3 6.3 C7.4 5.5 8 5 8.7 5 L9.9 5 C10.6 5 11.1 5.5 11.1 6.2 L11.1 11.1 C11.4 11.1 11.7 11.1 12 11.1 C16.1 10.9 22.5 9.4 20.5 7.2 Z M9.9 6.2 L8.7 6.2 L8.7 20.8 L14.8 19 L9.9 16 L9.9 6.2 Z " stroke="none" fill="#FFFFFF" fill-rule="evenodd" fill-opacity="1" />
</g>
</g>
</svg>