<?xml version="1.0" encoding="utf-8"?><!DOCTYPE svg PUBLIC "-//W3C//DTD SVG 1.1//EN" "http://www.w3.org/Graphics/SVG/1.1/DTD/svg11.dtd"[]><svg version="1.1" xmlns="http://www.w3.org/2000/svg" xmlns:xlink="http://www.w3.org/1999/xlink" width="20px" height="20px" viewBox="0 0 20 20" xml:space="preserve" enable-background="new 0 0 20 20">
<g color-interpolation="linearRGB" transform="scale(0.75,0.75)">
<g transform="matrix(1.2063492 0 0 -1.2063492 0.66666667 26)">
<path d="M18.3 1.9 L18.3 2.1 C18.3 3.1 17.5 3.9 16.5 3.9 L16.3 3.9 C15.3 3.9 14.5 3.1 14.5 2.1 L14.5 1.9 C14.5 0.9 15.3 0.1 16.3 0.1 L16.5 0.1 C17.5 0.1 18.3 0.9 18.3 1.9 Z M7.9 1.9 L7.9 2.1 C7.9 3.1 7.1 3.9 6.1 3.9 L5.8 3.9 C4.8 3.9 4 3.1 4 2.1 L4 1.9 C4 0.9 4.8 0.1 5.8 0.1 L6 0.1 C7.1 0.1 7.9 0.9 7.9 1.9 Z M6.4 6.6 L18.3 6.6 L18.3 5.3 L6.6 5.3 L5.3 5.3 L2.9 19.6 L0.1 19.6 L0.1 20.9 L2.7 20.9 L4 20.9 L4.6 17 L20.9 17 L17 7.9 L6.2 7.9 L6.4 6.6 Z " stroke="none" fill="#FFFFFF" fill-rule="evenodd" fill-opacity="1" />
</g>
</g>
</svg>