<?xml version="1.0" encoding="utf-8"?><!DOCTYPE svg PUBLIC "-//W3C//DTD SVG 1.1//EN" "http://www.w3.org/Graphics/SVG/1.1/DTD/svg11.dtd"[]><svg version="1.1" xmlns="http://www.w3.org/2000/svg" xmlns:xlink="http://www.w3.org/1999/xlink" width="20px" height="20px" viewBox="0 0 20 20" xml:space="preserve" enable-background="new 0 0 20 20">
<g color-interpolation="linearRGB" transform="scale(0.75,0.75)">
<g transform="matrix(1.4901961 0 0 -1.4901961 0.66666667 26)">
<path d="M9.89 12.37 L11.29 10.51 L13.04 10.51 C13.44 10.51 13.73 10.18 13.75 9.82 C13.77 9.5 13.52 9.17 13.14 9.11 L13.14 1.04 L12.08 1.04 L12.08 9.09 L10.61 9.09 L9.6 10.74 L8.51 7.66 L10.4 5.51 C10.4 5.51 10.7 5.34 10.73 4.88 L10.73 0.82 C10.73 0.37 10.37 0 9.92 0 C9.47 0 9.1 0.37 9.1 0.82 L9.1 4.67 L7.62 6.16 L6.33 3.52 L3.92 0.61 C3.63 0.36 3.42 0.07 2.94 0.28 C2.63 0.4 2.41 0.69 2.41 1.04 C2.41 1.26 2.51 1.45 2.65 1.62 L5.23 4.92 L7.37 11.63 C7.37 11.63 7.84 13.06 8.65 13.06 C9.45 13.06 9.89 12.37 9.89 12.37 Z M4.15 7.93 L2.66 8.41 C2.35 8.51 2.18 8.84 2.28 9.16 L3.74 13.67 C3.84 13.98 4.17 14.16 4.49 14.06 L5.97 13.58 C6.12 13.53 6.24 13.42 6.32 13.28 C6.39 13.14 6.4 12.98 6.35 12.83 L4.9 8.31 C4.85 8.16 4.74 8.04 4.6 7.96 C4.46 7.89 4.3 7.88 4.15 7.93 Z M10.05 13.48 C9.08 13.48 8.3 14.27 8.3 15.24 C8.3 16.21 9.08 17 10.05 17 C11.03 17 11.81 16.21 11.81 15.24 C11.81 14.27 11.03 13.48 10.05 13.48 Z " stroke="none" fill="#FFFFFF" fill-rule="evenodd" fill-opacity="1" />
</g>
</g>
</svg>