<?xml version="1.0" encoding="utf-8"?><svg version="1.1" xmlns="http://www.w3.org/2000/svg" xmlns:xlink="http://www.w3.org/1999/xlink" width="20px" height="20px" viewBox="0 0 20 20" xml:space="preserve" enable-background="new 0 0 20 20">
<g color-interpolation="linearRGB" transform="scale(0.75,0.75)">
<g transform="matrix(1.4901961 0 0 -1.4901961 0.66666667 26)">
<path d="M10.18 9.55 L13.07 4.9 L14.89 8.61 L15.48 7.73 L16.34 7.73 C14.35 3.14 8.5 0 8.5 0 C8.5 0 2.65 3.14 0.66 7.73 L4.15 7.73 L7.04 3.03 L10.18 9.55 Z M17 10.7 C17 10.22 16.93 9.74 16.83 9.28 L16.3 9.28 L14.67 11.68 L12.91 8.09 L10.01 12.75 L6.87 6.25 L5.02 9.28 L0.17 9.28 C0.07 9.74 0 10.22 0 10.7 C0 15.38 4.25 15.45 4.25 15.45 C4.25 15.45 6.96 15.66 8.5 13.08 C10.04 15.66 12.75 15.45 12.75 15.45 C12.75 15.45 17 15.38 17 10.7 Z " stroke="none"  fill-rule="evenodd" fill-opacity="1" />
</g>
</g>
</svg>