<?xml version="1.0" encoding="utf-8"?><!DOCTYPE svg PUBLIC "-//W3C//DTD SVG 1.1//EN" "http://www.w3.org/Graphics/SVG/1.1/DTD/svg11.dtd"[]><svg version="1.1" xmlns="http://www.w3.org/2000/svg" xmlns:xlink="http://www.w3.org/1999/xlink" width="20px" height="20px" viewBox="0 0 20 20" xml:space="preserve" enable-background="new 0 0 20 20">
<g color-interpolation="linearRGB" transform="scale(0.75,0.75)">
<g transform="matrix(1.4901961 0 0 -1.4901961 0.66666667 26)">
<path d="M3.92 5.56 C3.02 5.56 2.29 6.29 2.29 7.19 C2.29 8.09 3.02 8.83 3.92 8.83 C4.83 8.83 5.56 8.09 5.56 7.19 C5.56 6.29 4.83 5.56 3.92 5.56 Z M1.31 10.46 L1.31 3.93 L6.73 3.93 L6.73 4.3 C6.73 4.89 7.27 5.19 7.51 5.68 C7.74 6.14 7.85 6.68 7.85 7.19 C7.85 7.42 7.82 7.64 7.78 7.85 L15.69 7.85 L15.69 9.16 L17 9.16 L17 0 L15.69 0 L15.69 1.31 L1.31 1.31 L1.31 0 L0 0 L0 10.46 L1.31 10.46 Z " stroke="none" fill="#FFFFFF" fill-rule="evenodd" fill-opacity="1" />
</g>
</g>
</svg>