<?xml version="1.0" encoding="utf-8"?><svg version="1.1" xmlns="http://www.w3.org/2000/svg" xmlns:xlink="http://www.w3.org/1999/xlink" width="20px" height="20px" viewBox="0 0 20 20" xml:space="preserve" enable-background="new 0 0 20 20">
<g color-interpolation="linearRGB" transform="scale(0.75,0.75)">
<g transform="matrix(1.2063492 0 0 -1.2063492 0.66666667 26)">
<path d="M19.7 11 L20.9 11 L20.9 0 L0.1 0 L0.1 4.9 L5 9.8 L5 4.9 L9.9 9.8 L9.9 4.9 L12.4 4.9 L12.4 11 L13.6 11 L13.6 18.4 L14.8 18.4 L14.8 11 L18.5 11 L18.5 14.7 L19.7 14.7 L19.7 11 Z M16 2.4 L16 4.8 L14.8 4.8 L14.8 2.4 L16 2.4 Z M16 6.1 L16 8.5 L14.8 8.5 L14.8 6.1 L16 6.1 Z M18.5 2.4 L18.5 4.8 L17.3 4.8 L17.3 2.4 L18.5 2.4 Z M18.5 6.1 L18.5 8.5 L17.3 8.5 L17.3 6.1 L18.5 6.1 Z " stroke="none"  fill-rule="evenodd" fill-opacity="1" />
</g>
</g>
</svg>