<?xml version="1.0" encoding="utf-8"?><!DOCTYPE svg PUBLIC "-//W3C//DTD SVG 1.1//EN" "http://www.w3.org/Graphics/SVG/1.1/DTD/svg11.dtd"[]><svg version="1.1" xmlns="http://www.w3.org/2000/svg" xmlns:xlink="http://www.w3.org/1999/xlink" width="20px" height="20px" viewBox="0 0 20 20" xml:space="preserve" enable-background="new 0 0 20 20">
<g color-interpolation="linearRGB" transform="scale(0.75,0.75)">
<g transform="matrix(1.4901961 0 0 -1.4901961 0.66666667 26)">
<path d="M8.5 16.8 C13.08 16.8 16.8 13.08 16.8 8.5 C16.8 3.92 13.08 0.2 8.5 0.2 C3.92 0.2 0.2 3.92 0.2 8.5 C0.2 13.08 3.92 16.8 8.5 16.8 Z M10.24 3.39 L10.24 4.55 C10.24 5.18 9.71 5.71 9.08 5.71 L7.92 5.71 C7.29 5.71 6.76 5.18 6.76 4.55 L6.76 3.39 C6.76 2.75 7.29 2.23 7.92 2.23 L9.08 2.23 C9.71 2.23 10.24 2.75 10.24 3.39 Z M9.71 7.77 C11.49 8.25 12.73 9.75 12.73 11.45 C12.73 13.57 10.83 15.29 8.5 15.29 C6.17 15.29 4.27 13.57 4.27 11.45 C4.27 11.22 4.48 11.04 4.73 11.04 L6.24 11.04 C6.49 11.04 6.69 11.22 6.69 11.45 C6.69 12.36 7.5 13.1 8.5 13.1 C9.5 13.1 10.31 12.36 10.31 11.45 C10.31 10.54 9.49 9.8 8.48 9.8 L7.73 9.78 C7.48 9.77 7.29 9.59 7.29 9.36 L7.29 6.65 C7.29 6.42 7.5 6.24 7.75 6.24 L9.25 6.24 C9.5 6.24 9.71 6.42 9.71 6.65 L9.71 7.77 Z " stroke="none" fill="#FFFFFF" fill-rule="evenodd" fill-opacity="1" />
</g>
</g>
</svg>