<?xml version="1.0" encoding="utf-8"?><!DOCTYPE svg PUBLIC "-//W3C//DTD SVG 1.1//EN" "http://www.w3.org/Graphics/SVG/1.1/DTD/svg11.dtd"[]><svg version="1.1" xmlns="http://www.w3.org/2000/svg" xmlns:xlink="http://www.w3.org/1999/xlink" width="20px" height="20px" viewBox="0 0 20 20" xml:space="preserve" enable-background="new 0 0 20 20">
<g color-interpolation="linearRGB" transform="scale(0.75,0.75)">
<g transform="matrix(1.2063492 0 0 -1.2063492 0.66666667 26)">
<path d="M16.6 6.2 C16.6 8.8 14.5 10.9 11.9 10.9 C9.3 10.9 7.2 8.8 7.2 6.2 C7.2 3.6 9.3 1.5 11.9 1.5 C14.5 1.5 16.6 3.6 16.6 6.2 Z M9.8 13.9 L14 13.9 L14 15.3 L9.8 15.3 L9.8 13.9 Z M4.3 11.1 L1.5 11.1 L1.5 9.7 L4.3 9.7 L4.3 11.1 Z M20.9 12.5 L20.9 0 L0.1 0 L0.1 12.5 L1.5 12.5 L1.5 13.9 L4.3 13.9 L4.3 12.5 L7 12.5 L8.4 16.7 L15.3 16.7 L16.7 12.5 L20.9 12.5 Z M11.9 3 C10.1 3 8.6 4.5 8.6 6.3 C8.6 8.1 10.1 9.6 11.9 9.6 C13.7 9.6 15.2 8.1 15.2 6.3 C15.2 4.5 13.7 3 11.9 3 Z " stroke="none" fill="#FFFFFF" fill-rule="evenodd" fill-opacity="1" />
</g>
</g>
</svg>