<?xml version="1.0" encoding="utf-8"?><svg version="1.1" xmlns="http://www.w3.org/2000/svg" xmlns:xlink="http://www.w3.org/1999/xlink" width="20px" height="20px" viewBox="0 0 20 20" xml:space="preserve" enable-background="new 0 0 20 20">
<g color-interpolation="linearRGB" transform="scale(0.75,0.75)">
<g transform="matrix(1.2063492 0 0 -1.2063492 0.66666667 26)">
<path d="M9.1 19.6 L14.7 14 C14.7 14 14.8 14.1 14.8 14.1 C16.3 15.7 16.4 18.2 14.8 19.7 C13.2 21.2 10.7 21.2 9.2 19.7 C9.2 19.7 9.1 19.6 9.1 19.6 Z M8.6 18.9 L14 13.5 C13.3 13.1 12.5 12.9 11.8 13 L8.1 16.7 C8 17.4 8.2 18.2 8.6 18.9 Z M7.5 16.1 L11.1 12.5 L3.1 6.3 L1.3 8.1 L7.5 16.1 Z M8.2 2.6 C6.3 1.3 4.6 0.1 3.1 0 C2.9 0 2.8 0.1 2.6 0.1 L2.4 0.1 L2.1 0.3 C1.6 0.6 -0.6 2.8 0.9 6.2 L1.6 5.9 C0.3 3 2 1.4 2.4 0.9 C2.7 0.8 2.9 0.7 3.2 0.7 C4.4 0.7 6.1 1.9 7.8 3.1 C9.9 4.5 11.9 6 13.8 6 C17.6 6 20.1 1.7 20.7 0.7 L20 0.4 C19.4 1.4 17 5.3 13.7 5.3 C12.1 5.3 10.1 3.9 8.2 2.6 Z " stroke="none"  fill-rule="evenodd" fill-opacity="1" />
</g>
</g>
</svg>