<?xml version="1.0" encoding="utf-8"?><svg version="1.1" xmlns="http://www.w3.org/2000/svg" xmlns:xlink="http://www.w3.org/1999/xlink" width="20px" height="20px" viewBox="0 0 20 20" xml:space="preserve" enable-background="new 0 0 20 20">
<g color-interpolation="linearRGB" transform="scale(0.75,0.75)">
<g transform="matrix(1.2063492 0 0 -1.2063492 0.66666667 26)">
<path d="M18.4 2.5 L2.6 2.5 L2.6 1.3 L1.5 1.3 L1.5 0.1 L19.5 0.1 L19.5 1.3 L18.3 1.3 L18.3 2.5 L18.4 2.5 Z M6.2 5 L7.4 5 L7.4 16 L6.2 16 L6.2 5 Z M8.7 16 L8.7 5 L9.9 5 L9.9 16 L8.7 16 Z M11.1 16 L11.1 5 L12.3 5 L12.3 16 L11.1 16 Z M13.6 16 L13.6 5 L14.8 5 L14.8 16 L13.6 16 Z M5 5 L5 16 L3.9 16 L3.9 17.2 L17.2 17.2 L17.2 16 L16 16 L16 5 L17.1 5 L17.1 3.8 L3.9 3.8 L3.9 5 L5 5 Z M19.7 20.9 L19.7 19.7 L18.3 19.7 L18.3 18.5 L2.6 18.5 L2.6 19.7 L1.3 19.7 L1.3 20.9 L19.7 20.9 Z " stroke="none"  fill-rule="evenodd" fill-opacity="1" />
</g>
</g>
</svg>