<?xml version="1.0" encoding="utf-8"?><svg version="1.1" xmlns="http://www.w3.org/2000/svg" xmlns:xlink="http://www.w3.org/1999/xlink" width="20px" height="20px" viewBox="0 0 20 20" xml:space="preserve" enable-background="new 0 0 20 20">
<g color-interpolation="linearRGB" transform="scale(0.75,0.75)">
<g transform="matrix(1.4901961 0 0 -1.4901961 0.66666667 26)">
<path d="M13.13 12.33 L15.55 7.14 C15.64 6.96 15.69 6.75 15.69 6.54 L15.69 1.96 C15.69 1.6 15.4 1.31 15.04 1.31 L14.38 1.31 L14.38 0 L13.08 0 L13.08 1.31 L3.92 1.31 L3.92 0 L2.62 0 L2.62 1.31 L1.96 1.31 C1.6 1.31 1.31 1.6 1.31 1.96 L1.31 6.54 C1.31 6.75 1.36 6.96 1.45 7.14 L3.91 12.33 C4.14 12.79 4.61 13.08 5.12 13.08 L11.92 13.08 C12.43 13.08 12.9 12.79 13.13 12.33 Z M5.23 11.76 L3.27 7.85 L13.73 7.85 L11.77 11.78 L5.23 11.76 Z M13.08 6.54 L13.08 5.23 L14.38 5.23 L14.38 6.54 L13.08 6.54 Z M3.92 5.23 L3.92 6.54 L2.62 6.54 L2.62 5.23 L3.92 5.23 Z M8.5 17 L17 14.39 L17 13.08 L8.5 15.69 L0 13.08 L0 14.39 L8.5 17 Z " stroke="none"  fill-rule="evenodd" fill-opacity="1" />
</g>
</g>
</svg>