<?xml version="1.0" encoding="utf-8"?><svg version="1.1" xmlns="http://www.w3.org/2000/svg" xmlns:xlink="http://www.w3.org/1999/xlink" width="20px" height="20px" viewBox="0 0 20 20" xml:space="preserve" enable-background="new 0 0 20 20">
<g color-interpolation="linearRGB" transform="scale(0.75,0.75)">
<g transform="matrix(1.2063492 0 0 -1.2063492 0.66666667 26)">
<path d="M18.6 14.2 C18.6 14.2 20.3 9.2 20.3 9.2 L20.3 0.4 C20.3 0.2 20.2 0.1 20 0.1 L12.5 0.1 L12.5 4.5 C12.5 5 12 5.3 11.4 5.3 L9.6 5.3 C9 5.3 8.5 4.9 8.5 4.5 L8.5 0.1 L1 0.1 C0.8 0.1 0.7 0.2 0.7 0.4 C0.7 0.4 0.7 9.2 0.7 9.2 L2.4 14.2 C2.5 14.5 2.9 14.5 3 14.2 L4.4 9.4 C4.5 9.3 4.6 9.2 4.7 9.2 C4.7 9.2 8.4 12.9 8.4 13.1 C8.4 13.1 8.4 15.7 8.4 15.7 L10.1 20.7 C10.2 21 10.6 21 10.7 20.7 L12.4 15.7 C12.4 15.7 12.4 13.1 12.4 13.1 C12.4 12.9 16.1 9.2 16.1 9.2 C16.2 9.2 16.4 9.3 16.4 9.4 L18 14.2 C18.1 14.5 18.5 14.5 18.6 14.2 Z M4.7 4 L4.7 6.6 L3.4 6.6 L3.4 4 L4.7 4 Z M10.5 8.9 C11 8.9 11.5 9.3 11.5 9.9 C11.5 10.5 11.1 10.9 10.5 10.9 C9.9 10.9 9.5 10.4 9.5 9.9 C9.5 9.3 10 8.9 10.5 8.9 Z M17.7 4 L17.7 6.6 L16.4 6.6 L16.4 4 L17.7 4 Z " stroke="none"  fill-rule="evenodd" fill-opacity="1" />
</g>
</g>
</svg>