<?xml version="1.0" encoding="utf-8"?><svg version="1.1" xmlns="http://www.w3.org/2000/svg" xmlns:xlink="http://www.w3.org/1999/xlink" width="20px" height="20px" viewBox="0 0 20 20" xml:space="preserve" enable-background="new 0 0 20 20">
<g color-interpolation="linearRGB" transform="scale(0.75,0.75)">
<g transform="matrix(1.2063492 0 0 -1.2063492 0.66666667 26)">
<path d="M17.1 10.2 L15.9 12.2 L14.5 11.1 L14.5 9.5 L16.8 10 L17.1 10.2 Z M4.1 7.1 L6.6 7.7 L6.3 8.7 L4.6 9.4 L4 7.1 L4.1 7.1 Z M20.9 8.6 L17.2 7.7 L18.6 5.4 L17.6 4.8 L16 7.4 L11.1 6.3 L12.4 2.5 L12.4 0 L8.7 0 L8.7 2.5 L9.8 6 L5.9 5 L5 1.7 L3.8 2 L4.5 4.7 L0 3.6 L0 6 L1.1 6.3 L2.1 10.1 C2.3 10.7 2.9 11.1 3.6 10.9 L3.7 10.9 C3.7 10.9 3.7 10.9 3.8 10.9 L6.8 9.7 L7.5 7.9 L13.5 9.3 L13.6 12 L16.1 14 C16.1 14 16.1 14 16.2 14 L16.3 14 C16.9 14.3 17.6 14.2 17.9 13.6 L19.7 10.7 L20.9 11 L20.9 8.6 Z M13.6 16.5 C13.6 15.5 14.4 14.7 15.4 14.7 C16.4 14.7 17.2 15.5 17.2 16.5 C17.2 17.5 16.4 18.3 15.4 18.3 C14.4 18.3 13.6 17.5 13.6 16.5 Z M6.2 14.1 C6.2 13.1 5.4 12.3 4.4 12.3 C3.4 12.3 2.5 13.1 2.5 14.1 C2.5 15.1 3.3 15.9 4.3 15.9 C5.3 15.9 6.2 15.1 6.2 14.1 Z " stroke="none"  fill-rule="evenodd" fill-opacity="1" />
</g>
</g>
</svg>