<?xml version="1.0" encoding="utf-8"?><svg version="1.1" xmlns="http://www.w3.org/2000/svg" xmlns:xlink="http://www.w3.org/1999/xlink" width="20px" height="20px" viewBox="0 0 20 20" xml:space="preserve" enable-background="new 0 0 20 20">
<g color-interpolation="linearRGB" transform="scale(0.75,0.75)">
<g transform="matrix(1.4901961 0 0 -1.4901961 0.66666667 26)">
<path d="M8.5 17 C8.5 17 10.88 14.31 15.69 14.38 C15.69 14.38 15.69 13.94 15.69 10.28 C15.69 6.61 15.25 2.39 8.5 0 C1.75 2.39 1.31 6.61 1.31 10.28 C1.31 13.94 1.31 14.38 1.31 14.38 C6.12 14.31 8.5 17 8.5 17 Z M13.32 9.52 C13.5 9.65 13.58 9.88 13.51 10.1 C13.43 10.32 13.24 10.46 13.01 10.46 L9.95 10.46 L9 13.38 C8.93 13.6 8.73 13.74 8.5 13.74 C8.27 13.74 8.07 13.6 8 13.38 L7.05 10.46 L3.99 10.46 C3.76 10.46 3.57 10.32 3.49 10.1 C3.42 9.88 3.5 9.65 3.68 9.52 L6.16 7.72 L5.22 4.8 C5.14 4.57 5.23 4.32 5.44 4.2 C5.52 4.14 5.62 4.12 5.71 4.12 C5.85 4.12 5.98 4.17 6.08 4.26 L8.5 6.61 L10.92 4.27 C11.02 4.17 11.15 4.12 11.29 4.12 C11.38 4.12 11.48 4.14 11.56 4.2 C11.77 4.32 11.86 4.57 11.78 4.8 L10.84 7.72 L13.32 9.52 Z " stroke="none"  fill-rule="evenodd" fill-opacity="1" />
</g>
</g>
</svg>