<?xml version="1.0" encoding="utf-8"?><svg version="1.1" xmlns="http://www.w3.org/2000/svg" xmlns:xlink="http://www.w3.org/1999/xlink" width="20px" height="20px" viewBox="0 0 20 20" xml:space="preserve" enable-background="new 0 0 20 20">
<g color-interpolation="linearRGB" transform="scale(0.75,0.75)">
<g transform="matrix(1.4901961 0 0 -1.4901961 0.66666667 26)">
<path d="M6.42 4.16 L6.42 0.69 C6.42 0.31 6.11 0 5.72 0 L4.34 0 C3.95 0 3.64 0.31 3.64 0.69 L3.64 4.16 L2.25 4.16 L3.36 8.33 L2.25 11.1 C2.25 11.87 2.75 12.49 3.36 12.49 L6.7 12.49 C7.31 12.49 7.81 11.87 7.81 11.1 L6.7 8.33 L7.81 4.16 L6.42 4.16 Z M13.36 6.25 L13.36 0.69 C13.36 0.31 13.05 0 12.66 0 L11.28 0 C10.89 0 10.58 0.31 10.58 0.69 L10.58 6.25 L9.89 6.25 C9.5 6.25 9.19 6.56 9.19 6.94 L9.19 11.8 C9.19 12.18 9.5 12.49 9.89 12.49 L14.05 12.49 C14.44 12.49 14.75 12.18 14.75 11.8 L14.75 6.94 C14.75 6.56 14.44 6.25 14.05 6.25 L13.36 6.25 Z M5.03 13.25 C4 13.25 3.16 14.09 3.16 15.13 C3.16 16.16 4 17 5.03 17 C6.06 17 6.9 16.16 6.9 15.13 C6.9 14.09 6.06 13.25 5.03 13.25 Z M11.97 13.25 C10.94 13.25 10.1 14.09 10.1 15.13 C10.1 16.16 10.94 17 11.97 17 C13 17 13.84 16.16 13.84 15.13 C13.84 14.09 13 13.25 11.97 13.25 Z " stroke="none"  fill-rule="evenodd" fill-opacity="1" />
</g>
</g>
</svg>