<?xml version="1.0" encoding="utf-8"?><svg version="1.1" xmlns="http://www.w3.org/2000/svg" xmlns:xlink="http://www.w3.org/1999/xlink" width="20px" height="20px" viewBox="0 0 20 20" xml:space="preserve" enable-background="new 0 0 20 20">
<g color-interpolation="linearRGB" transform="scale(0.75,0.75)">
<g transform="matrix(1.4901961 0 0 -1.4901961 0.66666667 26)">
<path d="M14.88 1.42 L14.88 1.42 L16.29 1.42 L16.29 0 L0.71 0 L0.71 1.42 L2.13 1.42 L2.13 11.34 L7.79 11.34 L7.79 17 L9.21 17 L13.46 14.88 L9.21 12.75 L9.21 11.34 L14.88 11.34 L14.88 1.42 Z M6.38 2.84 L6.38 5.67 L3.54 5.67 L3.54 2.84 L6.38 2.84 Z M6.38 7.09 L6.38 9.92 L3.54 9.92 L3.54 7.09 L6.38 7.09 Z M10.63 2.84 L10.63 5.67 L7.79 5.67 L7.79 2.84 L10.63 2.84 Z M10.63 7.09 L10.63 9.92 L7.79 9.92 L7.79 7.09 L10.63 7.09 Z M13.46 2.84 L13.46 5.67 L12.04 5.67 L12.04 2.84 L13.46 2.84 Z M13.46 7.09 L13.46 9.92 L12.04 9.92 L12.04 7.09 L13.46 7.09 Z " stroke="none"  fill-rule="evenodd" fill-opacity="1" />
</g>
</g>
</svg>