<?xml version="1.0" encoding="utf-8"?><svg version="1.1" xmlns="http://www.w3.org/2000/svg" xmlns:xlink="http://www.w3.org/1999/xlink" width="20px" height="20px" viewBox="0 0 20 20" xml:space="preserve" enable-background="new 0 0 20 20">
<g color-interpolation="linearRGB" transform="scale(0.75,0.75)">
<g transform="matrix(1.4901961 0 0 -1.4901961 0.66666667 26)">
<path d="M10.46 14.39 L10.46 14.39 L10.46 2.62 L11.77 1.31 L11.77 0 L5.23 0 L5.23 1.31 L6.54 2.62 L6.54 14.39 L7.85 14.39 L7.85 17 L9.15 17 L9.15 14.39 L10.46 14.39 Z M9.15 6.54 L9.15 6.54 L9.15 7.85 L7.85 7.85 L7.85 6.54 L9.15 6.54 Z M9.15 9.16 L9.15 9.16 L9.15 10.46 L7.85 10.46 L7.85 9.16 L9.15 9.16 Z M9.15 11.77 L9.15 11.77 L9.15 13.08 L7.85 13.08 L7.85 11.77 L9.15 11.77 Z M15.85 15.38 C16.6 14.09 17 12.61 17 11.12 C17 9.62 16.6 8.15 15.85 6.86 C15.73 6.66 15.52 6.54 15.3 6.54 L15.26 6.54 C15.03 6.54 14.81 6.66 14.7 6.86 C14.59 7.06 14.59 7.31 14.7 7.51 C15.35 8.61 15.69 9.86 15.69 11.12 C15.69 12.38 15.35 13.63 14.7 14.73 C14.59 14.93 14.59 15.17 14.7 15.37 C14.81 15.57 15.03 15.69 15.26 15.69 C15.48 15.69 15.73 15.57 15.85 15.38 Z M1.31 11.12 C1.31 9.86 1.65 8.61 2.3 7.51 C2.41 7.31 2.41 7.06 2.3 6.86 C2.19 6.66 1.97 6.54 1.74 6.54 L1.7 6.54 C1.48 6.54 1.27 6.66 1.15 6.86 C0.4 8.15 0 9.62 0 11.12 C0 12.61 0.4 14.09 1.15 15.38 C1.27 15.57 1.48 15.69 1.7 15.69 C1.93 15.69 2.17 15.57 2.28 15.37 C2.39 15.17 2.41 14.93 2.3 14.73 C1.65 13.63 1.31 12.38 1.31 11.12 Z M3.92 11.12 C3.92 10.31 4.14 9.51 4.55 8.81 C4.67 8.62 4.67 8.37 4.55 8.17 C4.44 7.97 4.23 7.85 4 7.85 L3.99 7.85 C3.76 7.85 3.55 7.97 3.44 8.16 C2.9 9.06 2.62 10.08 2.62 11.12 C2.62 12.15 2.9 13.17 3.44 14.07 C3.55 14.27 3.76 14.39 3.99 14.39 C4.22 14.39 4.43 14.26 4.55 14.06 C4.66 13.86 4.67 13.62 4.55 13.42 C4.14 12.72 3.92 11.93 3.92 11.12 Z M13 14.39 C13.23 14.39 13.45 14.27 13.56 14.07 C14.1 13.17 14.38 12.15 14.38 11.12 C14.38 10.08 14.1 9.06 13.56 8.16 C13.45 7.97 13.24 7.85 13.01 7.85 L13 7.85 C12.77 7.85 12.56 7.97 12.45 8.17 C12.33 8.37 12.33 8.62 12.45 8.81 C12.86 9.51 13.08 10.31 13.08 11.12 C13.08 11.93 12.86 12.72 12.45 13.42 C12.33 13.62 12.33 13.86 12.45 14.06 C12.56 14.26 12.77 14.39 13 14.39 Z " stroke="none"  fill-rule="evenodd" fill-opacity="1" />
</g>
</g>
</svg>