<?xml version="1.0" encoding="utf-8"?><svg version="1.1" xmlns="http://www.w3.org/2000/svg" xmlns:xlink="http://www.w3.org/1999/xlink" width="20px" height="20px" viewBox="0 0 20 20" xml:space="preserve" enable-background="new 0 0 20 20">
<g color-interpolation="linearRGB" transform="scale(0.75,0.75)">
<g transform="matrix(1.2063492 0 0 -1.2063492 0.66666667 26)">
<path d="M19.8 18.3 C19.8 18.3 20.9 15.4 20.9 10.6 C20.9 8.7 20.7 6.9 20.5 5.5 C20.1 3.4 18.9 1.6 17.1 0.7 C15.6 0 13.9 0 12.4 0.7 C11.5 1.2 10.7 1.8 10.1 2.7 C11.2 3.4 12 4.4 12.5 5.6 C13.1 5.8 13.9 6 14.8 6 C17.2 6 18.5 4.8 18.5 4.8 C18.5 4.8 17.7 7.2 14.8 7.2 C14.1 7.2 13.5 7 13 6.8 C13.1 7.1 13.2 7.4 13.2 7.7 C13.5 9.5 13.6 11.3 13.6 13 C13.6 14.5 13.4 15.8 13.3 16.9 C13.8 16.9 14.3 16.8 14.8 16.8 C17.7 16.8 19.8 18.3 19.8 18.3 Z M18.5 11 C19.1 11 19.7 11.5 19.6 12.2 C19.6 12.8 19.1 13.4 18.4 13.4 L17.2 13.4 C16.6 13.4 16 12.9 16 12.2 C16 11.5 16.6 11 17.3 11 L18.5 11 Z M11.2 20.8 C11.2 20.8 12.3 17.8 12.4 13.1 C12.4 11.2 12.2 9.4 12 8 C11.6 5.9 10.4 4.1 8.6 3.2 C7.1 2.5 5.4 2.5 3.9 3.2 C2.1 4.1 0.8 5.9 0.5 8 C0.3 9.5 0.1 11.2 0.1 13.1 C0.1 17.8 1.2 20.8 1.2 20.8 C1.2 20.8 3.3 19.3 6.2 19.3 C9.1 19.3 11.2 20.8 11.2 20.8 Z M1.3 14.7 C1.3 14 1.9 13.4 2.5 13.4 L3.8 13.4 C4.4 13.4 5 14.1 5 14.7 C5 15.3 4.4 15.9 3.7 15.9 L2.5 15.9 C1.9 15.9 1.3 15.4 1.3 14.7 Z M6.2 6.1 C9.2 6.1 9.9 8.5 9.9 8.5 C9.9 8.5 8.6 7.3 6.2 7.3 C3.8 7.3 2.5 8.5 2.5 8.5 C2.5 8.5 3.3 6.1 6.2 6.1 Z M9.9 13.4 C10.6 13.4 11.1 14.1 11.1 14.7 C11.1 15.3 10.6 15.9 9.9 15.9 L8.7 15.9 C8 15.9 7.4 15.4 7.4 14.7 C7.4 14 8 13.4 8.7 13.4 L9.9 13.4 Z " stroke="none"  fill-rule="evenodd" fill-opacity="1" />
</g>
</g>
</svg>