<?xml version="1.0" encoding="utf-8"?><svg version="1.1" xmlns="http://www.w3.org/2000/svg" xmlns:xlink="http://www.w3.org/1999/xlink" width="20px" height="20px" viewBox="0 0 20 20" xml:space="preserve" enable-background="new 0 0 20 20">
<g color-interpolation="linearRGB" transform="scale(0.75,0.75)">
<g transform="matrix(1.4901961 0 0 -1.4901961 0.66666667 26)">
<path d="M14.38 6.07 C14.38 4.88 13.43 3.93 12.24 3.93 L11.77 3.93 L14.38 0 L11.77 0 L10.46 3.93 L6.54 3.93 L5.23 0 L2.62 0 L5.23 3.93 L4.76 3.93 C3.57 3.93 2.62 4.88 2.62 6.07 L2.62 8.69 C2.62 9.07 2.65 9.47 2.71 9.85 C3.7 15.91 3.6 17 5.82 17 L11.18 17 C13.4 17 13.3 15.92 14.29 9.85 C14.35 9.47 14.38 9.07 14.38 8.69 L14.38 6.07 Z M9.15 6.54 L9.15 6.54 L9.15 7.85 L7.85 7.85 L7.85 6.54 L9.15 6.54 Z M8.5 9.16 L12.44 10.2 L11.5 14.39 L5.5 14.39 L4.56 10.2 L8.5 9.16 Z " stroke="none"  fill-rule="evenodd" fill-opacity="1" />
</g>
</g>
</svg>