<?xml version="1.0" encoding="utf-8"?><svg version="1.1" xmlns="http://www.w3.org/2000/svg" xmlns:xlink="http://www.w3.org/1999/xlink" width="20px" height="20px" viewBox="0 0 20 20" xml:space="preserve" enable-background="new 0 0 20 20">
<g color-interpolation="linearRGB" transform="scale(0.75,0.75)">
<g transform="matrix(1.2063492 0 0 -1.2063492 0.66666667 26)">
<path d="M10.5 5.7 L5 8.7 L5 4.8 C5.5 3.3 8.3 2.4 10.5 2.4 C12.7 2.4 15.5 3.2 16 4.8 L16 8.5 L10.5 5.7 Z M19.7 1.8 C19.7 1.1 20.6 1.2 20.9 1.2 L20.9 -0 C19.9 -0 18.5 -0 18.5 1.8 L18.5 11.7 L10.5 7.6 L0.1 13 L10.5 18.4 L20.9 13 L19.7 12.3 L19.7 1.8 Z " stroke="none"  fill-rule="evenodd" fill-opacity="1" />
</g>
</g>
</svg>