<?xml version="1.0" encoding="utf-8"?><!DOCTYPE svg PUBLIC "-//W3C//DTD SVG 1.1//EN" "http://www.w3.org/Graphics/SVG/1.1/DTD/svg11.dtd"[]><svg version="1.1" xmlns="http://www.w3.org/2000/svg" xmlns:xlink="http://www.w3.org/1999/xlink" width="20px" height="20px" viewBox="0 0 20 20" xml:space="preserve" enable-background="new 0 0 20 20">
<g color-interpolation="linearRGB" transform="scale(0.75,0.75)">
<g transform="matrix(1.2063492 0 0 -1.2063492 0.66666667 26)">
<path d="M3.2 11.1 C3.2 10.2 3.7 9.4 4.4 9 C5 9.5 5.9 9.9 6.8 9.9 C7.1 9.9 7.3 9.9 7.6 9.8 C7.9 10.2 8 10.6 8 11.1 C8 12.4 6.9 13.5 5.6 13.5 C4.3 13.5 3.2 12.5 3.2 11.1 Z M9.3 6.5 C8.7 5.9 8.2 5.1 8.2 4.3 C7.8 4 7.4 3.9 6.9 3.9 C5.6 3.9 4.5 4.9 4.5 6.3 C4.5 7.6 5.5 8.7 6.9 8.7 C8.1 8.7 9.2 7.7 9.3 6.5 Z M13 12 C13.1 11.1 13.6 10.2 14.1 9.8 C14 8.6 13 7.6 11.7 7.6 C10.4 7.6 9.3 8.6 9.3 10 C9.3 11.3 10.3 12.4 11.7 12.4 C12.2 12.4 12.6 12.2 13 12 Z M15.5 10.2 C14.7 10.6 14.2 11.4 14.3 12.3 C14.3 13.6 15.4 14.7 16.7 14.7 C18 14.7 19.1 13.7 19.1 12.3 C19.1 11.8 18.9 11.4 18.7 11 C18.5 11.1 18.2 11.1 17.9 11.1 C17 11.1 16.1 10.8 15.5 10.2 Z M13 2.5 C13 2.3 13 2 13.1 1.8 C12.7 1.5 12.3 1.4 11.8 1.4 C10.5 1.4 9.4 2.4 9.4 3.8 C9.4 5.1 10.4 6.2 11.8 6.2 C12.7 6.2 13.5 5.7 13.9 4.9 C13.4 4.3 13 3.4 13 2.5 Z M16.7 6.2 C16.4 6.2 16.1 6.2 16 6.1 C15.7 6.5 15.6 6.9 15.6 7.4 C15.6 8.7 16.7 9.8 18 9.8 C19.3 9.8 20.4 8.8 20.4 7.4 C20.4 6.5 19.9 5.7 19.1 5.3 C18.5 5.8 17.6 6.2 16.7 6.2 Z M16.7 5 C18 5 19.1 3.9 19.1 2.6 C19.1 1.3 18 0.2 16.7 0.2 C15.4 0.2 14.3 1.3 14.3 2.6 C14.3 3.9 15.3 5 16.7 5 Z M9.3 20.9 C9.3 20.9 9.5 17 5.8 17.3 C7.3 16.3 8.4 15.4 8.5 15.3 L7.7 14.3 C7.7 14.3 3 18 0.7 18.5 L0.8 19.7 C2.2 19.4 4 18.3 5.6 17.3 C5.6 17.9 5.5 20.8 9.3 20.9 Z M11.8 13.6 C11.1 13.6 10.5 13.4 10.1 13.1 C9.7 13.5 9.4 14.1 9.4 14.8 C9.4 16.1 10.4 17.2 11.8 17.2 C13 17.2 14.1 16.2 14.2 15 C13.7 14.6 13.4 14 13.2 13.3 C12.7 13.5 12.3 13.6 11.8 13.6 Z " stroke="none" fill="#FFFFFF" fill-rule="evenodd" fill-opacity="1" />
</g>
</g>
</svg>