<?xml version="1.0" encoding="utf-8"?><!DOCTYPE svg PUBLIC "-//W3C//DTD SVG 1.1//EN" "http://www.w3.org/Graphics/SVG/1.1/DTD/svg11.dtd"[]><svg version="1.1" xmlns="http://www.w3.org/2000/svg" xmlns:xlink="http://www.w3.org/1999/xlink" width="20px" height="20px" viewBox="0 0 20 20" xml:space="preserve" enable-background="new 0 0 20 20">
<g color-interpolation="linearRGB" transform="scale(0.75,0.75)">
<g transform="matrix(1.2063492 0 0 -1.2063492 0.66666667 26)">
<path d="M20 10.2 C20.6 8.9 20.9 7.1 20.9 5.3 C20.9 2.8 19.7 1.6 18.3 1.3 L18.3 2.6 C18.9 2.8 19.6 3.5 19.6 5.4 C19.6 6.1 19.5 6.8 19.3 7.5 C19.1 7.5 18.9 7.5 18.7 7.5 L18.2 7.4 C17.5 6.9 17.2 6.6 16.3 6.5 L13.6 0 L12.3 0 L12.3 4.1 C11.2 3.8 9.7 3.7 8.5 3.7 C7.2 3.7 6.1 3.8 5 4.1 L5 -0.2 L3.8 -0.2 L0.8 6.7 C0.4 7.3 0.2 8 0.2 8.9 C0.2 12.7 4.3 15.4 8.6 15.4 C10.5 15.4 12.2 14.9 13.5 14.1 C13.1 13.5 12.4 12.4 12.2 10.9 C11.9 8.4 13 6.9 14.5 6.4 C14.6 6.4 14.8 6.4 14.9 6.5 C15 6.6 15.1 6.8 15.1 6.9 L15.1 7 C15.1 7.3 14.9 7.5 14.7 7.6 C13.4 8 13.2 9.5 13.3 10.9 C13.5 12.8 14.7 14.1 14.7 14.1 C15 14.2 15.3 14.3 15.7 14.3 C18.5 14.3 19.3 12 20 10.2 Z M17.2 10.1 L17.2 10.7 C17.2 10.9 17.1 11 16.9 11 L16.3 11 C16.1 11 16 10.9 16 10.7 L16 10.1 C16 9.9 16.1 9.8 16.3 9.8 L16.9 9.8 C17.1 9.8 17.2 9.9 17.2 10.1 Z " stroke="none" fill="#FFFFFF" fill-rule="evenodd" fill-opacity="1" />
</g>
</g>
</svg>